<?xml version="1.0" encoding="UTF-8"?><svg xmlns="http://www.w3.org/2000/svg" xmlns:xlink="http://www.w3.org/1999/xlink" fill-opacity="1" color-rendering="auto" color-interpolation="auto" text-rendering="auto" stroke="black" stroke-linecap="square" width="691" stroke-miterlimit="10" shape-rendering="auto" stroke-opacity="1" fill="black" stroke-dasharray="none" font-weight="normal" stroke-width="1" height="152" font-family="'Dialog'" font-style="normal" stroke-linejoin="miter" font-size="12px" stroke-dashoffset="0" image-rendering="auto">
  <!--Generated by ySVG 2.5-->
  <defs id="genericDefs"/>
  <g>
    <defs id="defs1">
      <clipPath clipPathUnits="userSpaceOnUse" id="clipPath1">
        <path d="M0 0 L691 0 L691 152 L0 152 L0 0 Z"/>
      </clipPath>
      <clipPath clipPathUnits="userSpaceOnUse" id="clipPath2">
        <path d="M-2508 -483 L-1817 -483 L-1817 -331 L-2508 -331 L-2508 -483 Z"/>
      </clipPath>
    </defs>
    <g text-rendering="geometricPrecision" shape-rendering="geometricPrecision" transform="translate(2508,483)">
      <rect x="-2508" width="691" height="152" y="-483" clip-path="url(#clipPath2)" stroke="none"/>
    </g>
    <g fill="rgb(102,0,0)" text-rendering="geometricPrecision" shape-rendering="geometricPrecision" transform="matrix(1,0,0,1,2508,483)" stroke="rgb(102,0,0)">
      <rect x="-2492.9141" y="-468" clip-path="url(#clipPath2)" width="125.8281" rx="4" ry="4" height="36" stroke="none"/>
    </g>
    <g stroke-linecap="butt" transform="matrix(1,0,0,1,2508,483)" fill="rgb(204,204,204)" text-rendering="geometricPrecision" shape-rendering="geometricPrecision" stroke="rgb(204,204,204)" stroke-width="2" stroke-miterlimit="1.45">
      <rect x="-2492.9141" y="-468" clip-path="url(#clipPath2)" fill="none" width="125.8281" rx="4" ry="4" height="36"/>
      <text x="-2480.9141" font-size="16px" y="-443.6484" clip-path="url(#clipPath2)" font-family="'Tahoma'" stroke="none" stroke-width="1" xml:space="preserve">MainController</text>
    </g>
    <g fill="rgb(0,0,102)" text-rendering="geometricPrecision" shape-rendering="geometricPrecision" transform="matrix(1,0,0,1,2508,483)" stroke="rgb(0,0,102)">
      <rect x="-2337.0859" y="-468" clip-path="url(#clipPath2)" width="136.1094" rx="4" ry="4" height="36" stroke="none"/>
    </g>
    <g stroke-linecap="butt" transform="matrix(1,0,0,1,2508,483)" fill="rgb(204,204,204)" text-rendering="geometricPrecision" shape-rendering="geometricPrecision" stroke="rgb(204,204,204)" stroke-width="2" stroke-miterlimit="1.45">
      <rect x="-2337.0859" y="-468" clip-path="url(#clipPath2)" fill="none" width="136.1094" rx="4" ry="4" height="36"/>
      <text x="-2325.0859" font-size="16px" y="-443.6484" clip-path="url(#clipPath2)" font-family="'Tahoma'" stroke="none" stroke-width="1" xml:space="preserve">CombineService</text>
    </g>
    <g fill="rgb(0,102,0)" text-rendering="geometricPrecision" shape-rendering="geometricPrecision" transform="matrix(1,0,0,1,2508,483)" stroke="rgb(0,102,0)">
      <rect x="-2170.9766" y="-468" clip-path="url(#clipPath2)" width="150.1719" rx="4" ry="4" height="36" stroke="none"/>
    </g>
    <g stroke-linecap="butt" transform="matrix(1,0,0,1,2508,483)" fill="rgb(204,204,204)" text-rendering="geometricPrecision" shape-rendering="geometricPrecision" stroke="rgb(204,204,204)" stroke-width="2" stroke-miterlimit="1.45">
      <rect x="-2170.9766" y="-468" clip-path="url(#clipPath2)" fill="none" width="150.1719" rx="4" ry="4" height="36"/>
      <text x="-2158.9766" font-size="16px" y="-443.6484" clip-path="url(#clipPath2)" font-family="'Tahoma'" stroke="none" stroke-width="1" xml:space="preserve">AnswerRepository</text>
    </g>
    <g fill="rgb(51,51,51)" text-rendering="geometricPrecision" shape-rendering="geometricPrecision" transform="matrix(1,0,0,1,2508,483)" stroke="rgb(51,51,51)">
      <rect x="-1990.8047" y="-468" clip-path="url(#clipPath2)" width="52.5312" rx="4" ry="4" height="36" stroke="none"/>
    </g>
    <g stroke-linecap="butt" transform="matrix(1,0,0,1,2508,483)" fill="rgb(204,204,204)" text-rendering="geometricPrecision" shape-rendering="geometricPrecision" stroke="rgb(204,204,204)" stroke-width="2" stroke-miterlimit="1.45">
      <rect x="-1990.8047" y="-468" clip-path="url(#clipPath2)" fill="none" width="52.5312" rx="4" ry="4" height="36"/>
      <text x="-1978.8047" font-size="16px" y="-443.6484" clip-path="url(#clipPath2)" font-family="'Tahoma'" stroke="none" stroke-width="1" xml:space="preserve">quiz</text>
    </g>
    <g fill="rgb(102,102,0)" text-rendering="geometricPrecision" shape-rendering="geometricPrecision" transform="matrix(1,0,0,1,2508,483)" stroke="rgb(102,102,0)">
      <rect x="-1908.2734" y="-468" clip-path="url(#clipPath2)" width="75.7188" rx="4" ry="4" height="36" stroke="none"/>
    </g>
    <g stroke-linecap="butt" transform="matrix(1,0,0,1,2508,483)" fill="rgb(204,204,204)" text-rendering="geometricPrecision" shape-rendering="geometricPrecision" stroke="rgb(204,204,204)" stroke-width="2" stroke-miterlimit="1.45">
      <rect x="-1908.2734" y="-468" clip-path="url(#clipPath2)" fill="none" width="75.7188" rx="4" ry="4" height="36"/>
      <text x="-1896.2734" font-size="16px" y="-443.6484" clip-path="url(#clipPath2)" font-family="'Tahoma'" stroke="none" stroke-width="1" xml:space="preserve">Answer</text>
    </g>
    <g fill="rgb(102,0,0)" text-rendering="geometricPrecision" shape-rendering="geometricPrecision" transform="matrix(1,0,0,1,2508,483)" stroke="rgb(102,0,0)">
      <rect x="-2492.9141" y="-382" clip-path="url(#clipPath2)" width="92.5234" rx="4" ry="4" height="36" stroke="none"/>
    </g>
    <g stroke-linecap="butt" transform="matrix(1,0,0,1,2508,483)" fill="rgb(204,204,204)" text-rendering="geometricPrecision" shape-rendering="geometricPrecision" stroke="rgb(204,204,204)" stroke-width="2" stroke-miterlimit="1.45">
      <rect x="-2492.9141" y="-382" clip-path="url(#clipPath2)" fill="none" width="92.5234" rx="4" ry="4" height="36"/>
      <text x="-2480.9141" font-size="16px" y="-357.6484" clip-path="url(#clipPath2)" font-family="'Tahoma'" stroke="none" stroke-width="1" xml:space="preserve">Controller</text>
    </g>
    <g fill="rgb(0,0,102)" text-rendering="geometricPrecision" shape-rendering="geometricPrecision" transform="matrix(1,0,0,1,2508,483)" stroke="rgb(0,0,102)">
      <rect x="-2390.3906" y="-382" clip-path="url(#clipPath2)" width="74.5312" rx="4" ry="4" height="36" stroke="none"/>
    </g>
    <g stroke-linecap="butt" transform="matrix(1,0,0,1,2508,483)" fill="rgb(204,204,204)" text-rendering="geometricPrecision" shape-rendering="geometricPrecision" stroke="rgb(204,204,204)" stroke-width="2" stroke-miterlimit="1.45">
      <rect x="-2390.3906" y="-382" clip-path="url(#clipPath2)" fill="none" width="74.5312" rx="4" ry="4" height="36"/>
      <text x="-2378.3906" font-size="16px" y="-357.6484" clip-path="url(#clipPath2)" font-family="'Tahoma'" stroke="none" stroke-width="1" xml:space="preserve">Service</text>
    </g>
    <g fill="rgb(0,102,0)" text-rendering="geometricPrecision" shape-rendering="geometricPrecision" transform="matrix(1,0,0,1,2508,483)" stroke="rgb(0,102,0)">
      <rect x="-2305.8594" y="-382" clip-path="url(#clipPath2)" width="98.4531" rx="4" ry="4" height="36" stroke="none"/>
    </g>
    <g stroke-linecap="butt" transform="matrix(1,0,0,1,2508,483)" fill="rgb(204,204,204)" text-rendering="geometricPrecision" shape-rendering="geometricPrecision" stroke="rgb(204,204,204)" stroke-width="2" stroke-miterlimit="1.45">
      <rect x="-2305.8594" y="-382" clip-path="url(#clipPath2)" fill="none" width="98.4531" rx="4" ry="4" height="36"/>
      <text x="-2293.8594" font-size="16px" y="-357.6484" clip-path="url(#clipPath2)" font-family="'Tahoma'" stroke="none" stroke-width="1" xml:space="preserve">Repository</text>
    </g>
    <g fill="rgb(51,51,51)" text-rendering="geometricPrecision" shape-rendering="geometricPrecision" transform="matrix(1,0,0,1,2508,483)" stroke="rgb(51,51,51)">
      <rect x="-2197.4062" y="-382" clip-path="url(#clipPath2)" width="89.8047" rx="4" ry="4" height="36" stroke="none"/>
    </g>
    <g stroke-linecap="butt" transform="matrix(1,0,0,1,2508,483)" fill="rgb(204,204,204)" text-rendering="geometricPrecision" shape-rendering="geometricPrecision" stroke="rgb(204,204,204)" stroke-width="2" stroke-miterlimit="1.45">
      <rect x="-2197.4062" y="-382" clip-path="url(#clipPath2)" fill="none" width="89.8047" rx="4" ry="4" height="36"/>
      <text x="-2185.4062" font-size="16px" y="-357.6484" clip-path="url(#clipPath2)" font-family="'Tahoma'" stroke="none" stroke-width="1" xml:space="preserve">Database</text>
    </g>
    <g fill="rgb(102,102,0)" text-rendering="geometricPrecision" shape-rendering="geometricPrecision" transform="matrix(1,0,0,1,2508,483)" stroke="rgb(102,102,0)">
      <rect x="-2097.6016" y="-382" clip-path="url(#clipPath2)" width="65.9375" rx="4" ry="4" height="36" stroke="none"/>
    </g>
    <g stroke-linecap="butt" transform="matrix(1,0,0,1,2508,483)" fill="rgb(204,204,204)" text-rendering="geometricPrecision" shape-rendering="geometricPrecision" stroke="rgb(204,204,204)" stroke-width="2" stroke-miterlimit="1.45">
      <rect x="-2097.6016" y="-382" clip-path="url(#clipPath2)" fill="none" width="65.9375" rx="4" ry="4" height="36"/>
      <text x="-2085.6016" font-size="16px" y="-357.6484" clip-path="url(#clipPath2)" font-family="'Tahoma'" stroke="none" stroke-width="1" xml:space="preserve">Model</text>
      <path fill="none" d="M-2337.0579 -450 L-2358.0552 -450" clip-path="url(#clipPath2)"/>
      <path d="M-2367.0552 -450 L-2353.5552 -444.375 L-2356.9302 -450 L-2353.5552 -455.625 Z" clip-path="url(#clipPath2)" stroke="none"/>
      <path fill="none" d="M-2171.0056 -450 L-2192.0164 -450" clip-path="url(#clipPath2)"/>
      <path d="M-2201.0164 -450 L-2187.5164 -444.375 L-2190.8914 -450 L-2187.5164 -455.625 Z" clip-path="url(#clipPath2)" stroke="none"/>
      <path fill="none" d="M-1990.803 -450 L-2011.795 -450" clip-path="url(#clipPath2)"/>
      <path d="M-2020.795 -450 L-2007.295 -444.375 L-2010.67 -450 L-2007.295 -455.625 Z" clip-path="url(#clipPath2)" stroke="none"/>
      <path fill="none" d="M-1908.2388 -450 L-1929.2858 -450" clip-path="url(#clipPath2)"/>
      <path d="M-1938.2858 -450 L-1924.7858 -444.375 L-1928.1608 -450 L-1924.7858 -455.625 Z" clip-path="url(#clipPath2)" stroke="none"/>
    </g>
  </g>
</svg>
