<?xml version="1.0" encoding="UTF-8"?><svg xmlns="http://www.w3.org/2000/svg" xmlns:xlink="http://www.w3.org/1999/xlink" fill-opacity="1" color-rendering="auto" color-interpolation="auto" text-rendering="auto" stroke="black" stroke-linecap="square" width="961" stroke-miterlimit="10" shape-rendering="auto" stroke-opacity="1" fill="black" stroke-dasharray="none" font-weight="normal" stroke-width="1" height="259" font-family="'Dialog'" font-style="normal" stroke-linejoin="miter" font-size="12px" stroke-dashoffset="0" image-rendering="auto">
  <!--Generated by ySVG 2.5-->
  <defs id="genericDefs"/>
  <g>
    <defs id="defs1">
      <clipPath clipPathUnits="userSpaceOnUse" id="clipPath1">
        <path d="M0 0 L961 0 L961 259 L0 259 L0 0 Z"/>
      </clipPath>
      <clipPath clipPathUnits="userSpaceOnUse" id="clipPath2">
        <path d="M-2944 -580 L-1983 -580 L-1983 -321 L-2944 -321 L-2944 -580 Z"/>
      </clipPath>
    </defs>
    <g text-rendering="geometricPrecision" shape-rendering="geometricPrecision" transform="translate(2944,580)">
      <rect x="-2944" width="961" height="259" y="-580" clip-path="url(#clipPath2)" stroke="none"/>
    </g>
    <g fill="rgb(102,0,0)" text-rendering="geometricPrecision" shape-rendering="geometricPrecision" transform="matrix(1,0,0,1,2944,580)" stroke="rgb(102,0,0)">
      <rect x="-2522.9141" y="-468" clip-path="url(#clipPath2)" width="125.8281" rx="4" ry="4" height="36" stroke="none"/>
    </g>
    <g stroke-linecap="butt" transform="matrix(1,0,0,1,2944,580)" fill="rgb(204,204,204)" text-rendering="geometricPrecision" shape-rendering="geometricPrecision" stroke="rgb(204,204,204)" stroke-width="2" stroke-miterlimit="1.45">
      <rect x="-2522.9141" y="-468" clip-path="url(#clipPath2)" fill="none" width="125.8281" rx="4" ry="4" height="36"/>
      <text x="-2510.9141" font-size="16px" y="-443.6484" clip-path="url(#clipPath2)" font-family="'Tahoma'" stroke="none" stroke-width="1" xml:space="preserve">MainController</text>
    </g>
    <g fill="rgb(0,102,0)" text-rendering="geometricPrecision" shape-rendering="geometricPrecision" transform="matrix(1,0,0,1,2944,580)" stroke="rgb(0,102,0)">
      <rect x="-2357.0859" y="-468" clip-path="url(#clipPath2)" width="150.1719" rx="4" ry="4" height="36" stroke="none"/>
    </g>
    <g stroke-linecap="butt" transform="matrix(1,0,0,1,2944,580)" fill="rgb(204,204,204)" text-rendering="geometricPrecision" shape-rendering="geometricPrecision" stroke="rgb(204,204,204)" stroke-width="2" stroke-miterlimit="1.45">
      <rect x="-2357.0859" y="-468" clip-path="url(#clipPath2)" fill="none" width="150.1719" rx="4" ry="4" height="36"/>
      <text x="-2345.0859" font-size="16px" y="-443.6484" clip-path="url(#clipPath2)" font-family="'Tahoma'" stroke="none" stroke-width="1" xml:space="preserve">AnswerRepository</text>
    </g>
    <g fill="rgb(51,51,51)" text-rendering="geometricPrecision" shape-rendering="geometricPrecision" transform="matrix(1,0,0,1,2944,580)" stroke="rgb(51,51,51)">
      <rect x="-2051.1953" y="-468" clip-path="url(#clipPath2)" width="52.5312" rx="4" ry="4" height="36" stroke="none"/>
    </g>
    <g stroke-linecap="butt" transform="matrix(1,0,0,1,2944,580)" fill="rgb(204,204,204)" text-rendering="geometricPrecision" shape-rendering="geometricPrecision" stroke="rgb(204,204,204)" stroke-width="2" stroke-miterlimit="1.45">
      <rect x="-2051.1953" y="-468" clip-path="url(#clipPath2)" fill="none" width="52.5312" rx="4" ry="4" height="36"/>
      <text x="-2039.1953" font-size="16px" y="-443.6484" clip-path="url(#clipPath2)" font-family="'Tahoma'" stroke="none" stroke-width="1" xml:space="preserve">quiz</text>
    </g>
    <g fill="rgb(102,102,0)" text-rendering="geometricPrecision" shape-rendering="geometricPrecision" transform="matrix(1,0,0,1,2944,580)" stroke="rgb(102,102,0)">
      <rect x="-2166.9141" y="-468" clip-path="url(#clipPath2)" width="75.7188" rx="4" ry="4" height="36" stroke="none"/>
    </g>
    <g stroke-linecap="butt" transform="matrix(1,0,0,1,2944,580)" fill="rgb(204,204,204)" text-rendering="geometricPrecision" shape-rendering="geometricPrecision" stroke="rgb(204,204,204)" stroke-width="2" stroke-miterlimit="1.45">
      <rect x="-2166.9141" y="-468" clip-path="url(#clipPath2)" fill="none" width="75.7188" rx="4" ry="4" height="36"/>
      <text x="-2154.9141" font-size="16px" y="-443.6484" clip-path="url(#clipPath2)" font-family="'Tahoma'" stroke="none" stroke-width="1" xml:space="preserve">Answer</text>
    </g>
    <g fill="rgb(51,0,102)" text-rendering="geometricPrecision" shape-rendering="geometricPrecision" transform="matrix(1,0,0,1,2944,580)" stroke="rgb(51,0,102)">
      <rect x="-2688.1094" y="-544" clip-path="url(#clipPath2)" width="96.4922" rx="4" ry="4" height="36" stroke="none"/>
    </g>
    <g stroke-linecap="butt" transform="matrix(1,0,0,1,2944,580)" fill="rgb(204,204,204)" text-rendering="geometricPrecision" shape-rendering="geometricPrecision" stroke="rgb(204,204,204)" stroke-width="2" stroke-miterlimit="1.45">
      <rect x="-2688.1094" y="-544" clip-path="url(#clipPath2)" fill="none" width="96.4922" rx="4" ry="4" height="36"/>
      <text x="-2676.1094" font-size="16px" y="-519.6484" clip-path="url(#clipPath2)" font-family="'Tahoma'" stroke="none" stroke-width="1" xml:space="preserve">MvcConfig</text>
    </g>
    <g fill="rgb(51,0,102)" text-rendering="geometricPrecision" shape-rendering="geometricPrecision" transform="matrix(1,0,0,1,2944,580)" stroke="rgb(51,0,102)">
      <rect x="-2688.1094" y="-468" clip-path="url(#clipPath2)" width="125.1953" rx="4" ry="4" height="36" stroke="none"/>
    </g>
    <g stroke-linecap="butt" transform="matrix(1,0,0,1,2944,580)" fill="rgb(204,204,204)" text-rendering="geometricPrecision" shape-rendering="geometricPrecision" stroke="rgb(204,204,204)" stroke-width="2" stroke-miterlimit="1.45">
      <rect x="-2688.1094" y="-468" clip-path="url(#clipPath2)" fill="none" width="125.1953" rx="4" ry="4" height="36"/>
      <text x="-2676.1094" font-size="16px" y="-443.6484" clip-path="url(#clipPath2)" font-family="'Tahoma'" stroke="none" stroke-width="1" xml:space="preserve">SecurityConfig</text>
    </g>
    <g fill="rgb(51,102,0)" text-rendering="geometricPrecision" shape-rendering="geometricPrecision" transform="matrix(1,0,0,1,2944,580)" stroke="rgb(51,102,0)">
      <rect x="-2928.9531" y="-468" clip-path="url(#clipPath2)" width="96.9609" rx="4" ry="4" height="36" stroke="none"/>
    </g>
    <g stroke-linecap="butt" transform="matrix(1,0,0,1,2944,580)" fill="rgb(204,204,204)" text-rendering="geometricPrecision" shape-rendering="geometricPrecision" stroke="rgb(204,204,204)" stroke-width="2" stroke-miterlimit="1.45">
      <rect x="-2928.9531" y="-468" clip-path="url(#clipPath2)" fill="none" width="96.9609" rx="4" ry="4" height="36"/>
      <text x="-2916.9531" font-size="16px" y="-443.6484" clip-path="url(#clipPath2)" font-family="'Tahoma'" stroke="none" stroke-width="1" xml:space="preserve">/admin/**</text>
    </g>
    <g fill="rgb(51,102,0)" text-rendering="geometricPrecision" shape-rendering="geometricPrecision" transform="matrix(1,0,0,1,2944,580)" stroke="rgb(51,102,0)">
      <rect x="-2791.9922" y="-544" clip-path="url(#clipPath2)" width="47.5859" rx="4" ry="4" height="36" stroke="none"/>
    </g>
    <g stroke-linecap="butt" transform="matrix(1,0,0,1,2944,580)" fill="rgb(204,204,204)" text-rendering="geometricPrecision" shape-rendering="geometricPrecision" stroke="rgb(204,204,204)" stroke-width="2" stroke-miterlimit="1.45">
      <rect x="-2791.9922" y="-544" clip-path="url(#clipPath2)" fill="none" width="47.5859" rx="4" ry="4" height="36"/>
      <text x="-2779.9922" font-size="16px" y="-519.6484" clip-path="url(#clipPath2)" font-family="'Tahoma'" stroke="none" stroke-width="1" xml:space="preserve">/**</text>
    </g>
    <g fill="rgb(51,102,0)" text-rendering="geometricPrecision" shape-rendering="geometricPrecision" transform="matrix(1,0,0,1,2944,580)" stroke="rgb(51,102,0)">
      <rect x="-2791.9922" y="-468" clip-path="url(#clipPath2)" width="63.8828" rx="4" ry="4" height="36" stroke="none"/>
    </g>
    <g stroke-linecap="butt" transform="matrix(1,0,0,1,2944,580)" fill="rgb(204,204,204)" text-rendering="geometricPrecision" shape-rendering="geometricPrecision" stroke="rgb(204,204,204)" stroke-width="2" stroke-miterlimit="1.45">
      <rect x="-2791.9922" y="-468" clip-path="url(#clipPath2)" fill="none" width="63.8828" rx="4" ry="4" height="36"/>
      <text x="-2779.9922" font-size="16px" y="-443.6484" clip-path="url(#clipPath2)" font-family="'Tahoma'" stroke="none" stroke-width="1" xml:space="preserve">/login</text>
    </g>
    <g fill="rgb(51,102,0)" text-rendering="geometricPrecision" shape-rendering="geometricPrecision" transform="matrix(1,0,0,1,2944,580)" stroke="rgb(51,102,0)">
      <rect x="-2928.9531" y="-372" clip-path="url(#clipPath2)" width="86.2031" rx="4" ry="4" height="36" stroke="none"/>
    </g>
    <g stroke-linecap="butt" transform="matrix(1,0,0,1,2944,580)" fill="rgb(204,204,204)" text-rendering="geometricPrecision" shape-rendering="geometricPrecision" stroke="rgb(204,204,204)" stroke-width="2" stroke-miterlimit="1.45">
      <rect x="-2928.9531" y="-372" clip-path="url(#clipPath2)" fill="none" width="86.2031" rx="4" ry="4" height="36"/>
      <text x="-2916.9531" font-size="16px" y="-347.6484" clip-path="url(#clipPath2)" font-family="'Tahoma'" stroke="none" stroke-width="1" xml:space="preserve">Endpoint</text>
    </g>
    <g fill="rgb(51,0,102)" text-rendering="geometricPrecision" shape-rendering="geometricPrecision" transform="matrix(1,0,0,1,2944,580)" stroke="rgb(51,0,102)">
      <rect x="-2832.75" y="-372" clip-path="url(#clipPath2)" width="68.8125" rx="4" ry="4" height="36" stroke="none"/>
    </g>
    <g stroke-linecap="butt" transform="matrix(1,0,0,1,2944,580)" fill="rgb(204,204,204)" text-rendering="geometricPrecision" shape-rendering="geometricPrecision" stroke="rgb(204,204,204)" stroke-width="2" stroke-miterlimit="1.45">
      <rect x="-2832.75" y="-372" clip-path="url(#clipPath2)" fill="none" width="68.8125" rx="4" ry="4" height="36"/>
      <text x="-2820.75" font-size="16px" y="-347.6484" clip-path="url(#clipPath2)" font-family="'Tahoma'" stroke="none" stroke-width="1" xml:space="preserve">Config</text>
    </g>
    <g fill="rgb(102,102,0)" text-rendering="geometricPrecision" shape-rendering="geometricPrecision" transform="matrix(1,0,0,1,2944,580)" stroke="rgb(102,102,0)">
      <rect x="-2542.9609" y="-372" clip-path="url(#clipPath2)" width="65.9375" rx="4" ry="4" height="36" stroke="none"/>
    </g>
    <g stroke-linecap="butt" transform="matrix(1,0,0,1,2944,580)" fill="rgb(204,204,204)" text-rendering="geometricPrecision" shape-rendering="geometricPrecision" stroke="rgb(204,204,204)" stroke-width="2" stroke-miterlimit="1.45">
      <rect x="-2542.9609" y="-372" clip-path="url(#clipPath2)" fill="none" width="65.9375" rx="4" ry="4" height="36"/>
      <text x="-2530.9609" font-size="16px" y="-347.6484" clip-path="url(#clipPath2)" font-family="'Tahoma'" stroke="none" stroke-width="1" xml:space="preserve">Model</text>
    </g>
    <g fill="rgb(51,51,51)" text-rendering="geometricPrecision" shape-rendering="geometricPrecision" transform="matrix(1,0,0,1,2944,580)" stroke="rgb(51,51,51)">
      <rect x="-2467.0234" y="-372" clip-path="url(#clipPath2)" width="89.8047" rx="4" ry="4" height="36" stroke="none"/>
    </g>
    <g stroke-linecap="butt" transform="matrix(1,0,0,1,2944,580)" fill="rgb(204,204,204)" text-rendering="geometricPrecision" shape-rendering="geometricPrecision" stroke="rgb(204,204,204)" stroke-width="2" stroke-miterlimit="1.45">
      <rect x="-2467.0234" y="-372" clip-path="url(#clipPath2)" fill="none" width="89.8047" rx="4" ry="4" height="36"/>
      <text x="-2455.0234" font-size="16px" y="-347.6484" clip-path="url(#clipPath2)" font-family="'Tahoma'" stroke="none" stroke-width="1" xml:space="preserve">Database</text>
    </g>
    <g fill="rgb(0,102,0)" text-rendering="geometricPrecision" shape-rendering="geometricPrecision" transform="matrix(1,0,0,1,2944,580)" stroke="rgb(0,102,0)">
      <rect x="-2651.4141" y="-372" clip-path="url(#clipPath2)" width="98.4531" rx="4" ry="4" height="36" stroke="none"/>
    </g>
    <g stroke-linecap="butt" transform="matrix(1,0,0,1,2944,580)" fill="rgb(204,204,204)" text-rendering="geometricPrecision" shape-rendering="geometricPrecision" stroke="rgb(204,204,204)" stroke-width="2" stroke-miterlimit="1.45">
      <rect x="-2651.4141" y="-372" clip-path="url(#clipPath2)" fill="none" width="98.4531" rx="4" ry="4" height="36"/>
      <text x="-2639.4141" font-size="16px" y="-347.6484" clip-path="url(#clipPath2)" font-family="'Tahoma'" stroke="none" stroke-width="1" xml:space="preserve">Repository</text>
    </g>
    <g fill="rgb(102,0,0)" text-rendering="geometricPrecision" shape-rendering="geometricPrecision" transform="matrix(1,0,0,1,2944,580)" stroke="rgb(102,0,0)">
      <rect x="-2753.9375" y="-372" clip-path="url(#clipPath2)" width="92.5234" rx="4" ry="4" height="36" stroke="none"/>
    </g>
    <g stroke-linecap="butt" transform="matrix(1,0,0,1,2944,580)" fill="rgb(204,204,204)" text-rendering="geometricPrecision" shape-rendering="geometricPrecision" stroke="rgb(204,204,204)" stroke-width="2" stroke-miterlimit="1.45">
      <rect x="-2753.9375" y="-372" clip-path="url(#clipPath2)" fill="none" width="92.5234" rx="4" ry="4" height="36"/>
      <text x="-2741.9375" font-size="16px" y="-347.6484" clip-path="url(#clipPath2)" font-family="'Tahoma'" stroke="none" stroke-width="1" xml:space="preserve">Controller</text>
      <path fill="none" d="M-2357.0503 -450 L-2388.0891 -450" clip-path="url(#clipPath2)"/>
      <path d="M-2397.0891 -450 L-2383.5891 -444.375 L-2386.9641 -450 L-2383.5891 -455.625 Z" clip-path="url(#clipPath2)" stroke="none"/>
      <path fill="none" d="M-2051.1897 -450 L-2082.2249 -450" clip-path="url(#clipPath2)"/>
      <path d="M-2091.2249 -450 L-2077.7249 -444.375 L-2081.0999 -450 L-2077.7249 -455.625 Z" clip-path="url(#clipPath2)" stroke="none"/>
      <path fill="none" d="M-2166.8804 -450 L-2197.9304 -450" clip-path="url(#clipPath2)"/>
      <path d="M-2206.9304 -450 L-2193.4304 -444.375 L-2196.8054 -450 L-2193.4304 -455.625 Z" clip-path="url(#clipPath2)" stroke="none"/>
      <path fill="none" stroke-dasharray="12,4" d="M-2460 -467.998 L-2460 -526 L-2582.604 -526" clip-path="url(#clipPath2)"/>
      <path stroke-dasharray="12,4" d="M-2591.604 -526 L-2578.104 -520.375 L-2581.479 -526 L-2578.104 -531.625 Z" clip-path="url(#clipPath2)" stroke="none"/>
      <path fill="none" d="M-2522.9155 -450 L-2553.917 -450" clip-path="url(#clipPath2)"/>
      <path d="M-2562.917 -450 L-2549.417 -444.375 L-2552.792 -450 L-2549.417 -455.625 Z" clip-path="url(#clipPath2)" stroke="none"/>
      <path fill="none" stroke-dasharray="12,4" d="M-2639.8633 -543.998 L-2639.8633 -564 L-2880.4727 -564 L-2880.4727 -477.0073" clip-path="url(#clipPath2)"/>
      <path stroke-dasharray="12,4" d="M-2880.4727 -468.0073 L-2874.8477 -481.5073 L-2880.4727 -478.1323 L-2886.0977 -481.5073 Z" clip-path="url(#clipPath2)" stroke="none"/>
      <path fill="none" d="M-2708.1094 -450.3999 L-2708.1094 -526 L-2735.4038 -526" clip-path="url(#clipPath2)"/>
      <path d="M-2744.4038 -526 L-2730.9038 -520.375 L-2734.2788 -526 L-2730.9038 -531.625 Z" clip-path="url(#clipPath2)" stroke="none"/>
      <path fill="none" stroke-dasharray="12,4" d="M-2768.1992 -564.0004 L-2768.1992 -552.9982" clip-path="url(#clipPath2)"/>
      <path stroke-dasharray="12,4" d="M-2768.1992 -543.9982 L-2762.5742 -557.4982 L-2768.1992 -554.1232 L-2773.8242 -557.4982 Z" clip-path="url(#clipPath2)" stroke="none"/>
      <path fill="none" d="M-2688.0842 -450 L-2719.1086 -450" clip-path="url(#clipPath2)"/>
      <path d="M-2728.1086 -450 L-2714.6086 -444.375 L-2717.9836 -450 L-2714.6086 -455.625 Z" clip-path="url(#clipPath2)" stroke="none"/>
      <path fill="none" d="M-2792.0085 -450 L-2822.9641 -450" clip-path="url(#clipPath2)"/>
      <path d="M-2831.9641 -450 L-2818.4641 -444.375 L-2821.8391 -450 L-2818.4641 -455.625 Z" clip-path="url(#clipPath2)" stroke="none"/>
    </g>
  </g>
</svg>
